<?xml version="1.0" encoding="UTF-8"?>
<svg width="14px" height="17px" viewBox="0 0 14 17" version="1.1" xmlns="http://www.w3.org/2000/svg" xmlns:xlink="http://www.w3.org/1999/xlink">
    <!-- Generator: Sketch 52.4 (67378) - http://www.bohemiancoding.com/sketch -->
    <title>Combined Shape</title>
    <desc>Created with Sketch.</desc>
    <g id="Page-1" stroke="none" stroke-width="1" fill="none" fill-rule="evenodd">
        <g id="5-1-1-订单列表" transform="translate(-16.000000, -181.000000)" fill="#0287FF">
            <g id="Group-3" transform="translate(0.000000, 133.000000)">
                <g id="位置-copy-2" transform="translate(16.000000, 48.000000)">
                    <path d="M3.38653835,8.79301489 L9.25270048,4.12709709 L8.07917336,11.4588949 L7.08852595,7.82099201 L3.38756141,8.79677181 L3.38653835,8.79301489 Z M7.00000574,0 L6.99999426,1.337672e-15 C10.8590399,1.337672e-15 14,3.13660164 14,6.98659635 C14,11.9019987 7.36930568,16.3573315 7.08766482,16.5454545 C6.66613467,16.1859734 5.7242204,15.3925074 5.7242204,15.3925074 L6.50386381,14.8449031 C7.8318728,13.8800757 12.27099,10.3988753 12.27099,6.98846095 C12.27099,4.08653024 9.9059504,1.72476011 7.00000246,1.72476011 C4.09405452,1.72476011 1.72901493,4.08653024 1.72901493,6.98846095 C1.72901493,9.48620434 4.01945094,11.8368098 5.57314278,13.1443533 C5.14788154,13.4833452 4.67226219,13.8540025 4.17799072,14.2246597 C2.15242045,12.4626388 2.32960658e-16,9.90715667 0,6.99032882 C0,3.13661801 3.14096012,0 7.00000574,0 Z" id="Combined-Shape"></path>
                </g>
            </g>
        </g>
    </g>
</svg>