<?xml version="1.0" encoding="UTF-8"?>
<svg width="16px" height="20px" viewBox="0 0 16 20" version="1.1" xmlns="http://www.w3.org/2000/svg" xmlns:xlink="http://www.w3.org/1999/xlink">
    <!-- Generator: Sketch 52.4 (67378) - http://www.bohemiancoding.com/sketch -->
    <title>Shape</title>
    <desc>Created with Sketch.</desc>
    <g id="Page-1" stroke="none" stroke-width="1" fill="none" fill-rule="evenodd">
        <g id="1-首页" transform="translate(-137.000000, -424.000000)" fill="#F36F52" fill-rule="nonzero">
            <g id="Group-3" transform="translate(137.000000, 424.000000)">
                <path d="M7.99999372,0 C3.58170416,0 0,3.60229009 0,8.04799593 C0,10.269701 0.895990494,12.281126 2.34284894,13.7382679 L7.99999372,19.4285589 L13.6571195,13.7382679 L13.6571193,13.7382681 C15.1611345,12.2268306 16.0037819,10.1802425 15.9999872,8.04799614 C15.9999872,3.6022903 12.4182641,2.10371068e-07 7.99999351,2.10371068e-07 L7.99999372,0 Z M7.99999372,11.6228508 C6.03070828,11.6178208 4.4383823,10.0173251 4.44341019,8.04805285 C4.44341219,8.04727126 4.44341444,8.04648968 4.44341695,8.0457081 L4.44341697,8.04571302 C4.43772987,6.07705358 6.02902644,4.47655014 7.99766691,4.47085818 C7.99844012,4.47085595 7.99921334,4.47085397 7.99998655,4.47085224 L7.99998671,4.47085224 C9.96927227,4.47589285 11.5615982,6.07639685 11.5565514,8.04566913 C11.5565494,8.04644441 11.5565472,8.04721968 11.5565447,8.04799496 L11.5565447,8.04801233 C11.5628481,10.0166528 9.97205278,11.6176685 8.0034142,11.6239866 C8.00226841,11.6239903 8.00112262,11.6239934 7.99997683,11.6239959 L7.99999372,11.6228508 Z" id="Shape"></path>
            </g>
        </g>
    </g>
</svg>