<?xml version="1.0" encoding="UTF-8"?>
<svg width="56px" height="45px" viewBox="0 0 56 45" version="1.1" xmlns="http://www.w3.org/2000/svg" xmlns:xlink="http://www.w3.org/1999/xlink">
    <!-- Generator: Sketch 52.4 (67378) - http://www.bohemiancoding.com/sketch -->
    <title>Combined Shape</title>
    <desc>Created with Sketch.</desc>
    <g id="Page-1" stroke="none" stroke-width="1" fill="none" fill-rule="evenodd">
        <g id="6-1-优惠券" transform="translate(-160.000000, -384.000000)" fill="#CACACA" fill-rule="nonzero">
            <path d="M213.2,428.8 L162.8,428.8 C161.2572,428.8 160,427.5456 160,426 L160,415.332 L160.9884,414.716 C163.8752,412.9128 165.6,409.8048 165.6,406.4 C165.6,402.9952 163.8752,399.8872 160.9884,398.084 L160,397.468 L160,386.8 C160,385.2572 161.2572,384 162.8,384 L213.2,384 C214.7456,384 216,385.2572 216,386.8 L216,397.468 L215.0116,398.084 C212.1248,399.8872 210.4,402.9952 210.4,406.4 C210.4,409.8048 212.1248,412.9128 215.0116,414.7188 L216,415.332 L216,426 C216,427.546396 214.746396,428.8 213.2,428.8 Z M164.2,424.6 L211.800001,424.6 L211.8,417.6028 C208.262367,414.967913 206.184452,410.811033 206.200001,406.4 C206.200001,401.9396 208.272001,397.832 211.800001,395.1972 L211.800001,388.2 L164.2,388.2 L164.200001,395.1972 C167.728001,397.8348 169.800001,401.9396 169.800001,406.4 C169.800001,410.8604 167.728001,414.968 164.200001,417.6028 L164.2,424.6 Z M182.4,402.2 C180.8572,402.2 179.6,400.9428 179.6,399.4 L179.6,393.8 C179.6,392.2572 180.8572,391 182.4,391 C183.9428,391 185.2,392.2572 185.2,393.8 L185.2,399.4 C185.2,400.9428 183.9428,402.2 182.4,402.2 Z M182.534028,399.4 L182.534028,400.8 L182.534028,399.4 Z M182.4,419 C180.8572,419 179.6,417.7456 179.6,416.2 L179.6,410.6 C179.669173,409.053605 180.978851,407.85608 182.525247,407.925249 C183.974764,407.990089 185.135154,409.150476 185.2,410.599993 L185.2,416.199993 C185.2,417.745593 183.9428,418.999993 182.4,418.999993 Z M182.534028,416.2 L182.534028,417.6 L182.534028,416.2 Z" id="Combined-Shape"></path>
        </g>
    </g>
</svg>