<?xml version="1.0" encoding="UTF-8"?>
<svg width="24px" height="23px" viewBox="0 0 24 23" version="1.1" xmlns="http://www.w3.org/2000/svg" xmlns:xlink="http://www.w3.org/1999/xlink">
    <!-- Generator: Sketch 52.4 (67378) - http://www.bohemiancoding.com/sketch -->
    <title>Shape</title>
    <desc>Created with Sketch.</desc>
    <g id="Page-1" stroke="none" stroke-width="1" fill="none" fill-rule="evenodd">
        <g id="2-订单" transform="translate(-19.000000, -759.000000)" fill="#999999" fill-rule="nonzero" stroke="#999999" stroke-width="0.6">
            <g id="Group-5" transform="translate(0.000000, 727.000000)">
                <g id="Group-4" transform="translate(-31.000000, 17.000000)">
                    <path d="M59.3511972,35.0717932 C59.3511972,33.8329795 58.3529796,32.8270833 57.124404,32.8270833 C55.8958285,32.8270833 54.8976109,33.83042 54.8976109,35.0717932 C54.8976109,36.3106069 55.8958285,37.3165031 57.124404,37.3165031 C58.3529796,37.3165031 59.3511972,36.3106069 59.3511972,35.0717932 Z M56.0110075,35.0717932 C56.0110075,34.4523864 56.5101163,33.950718 57.124404,33.950718 C57.7386918,33.950718 58.2378006,34.4523864 58.2378006,35.0717932 C58.2378006,35.6912 57.7386918,36.1928684 57.124404,36.1928684 C56.5101163,36.1928684 56.0110075,35.6912 56.0110075,35.0717932 Z M71.0431411,35.0717932 C71.0431411,33.8329795 70.0449234,32.8270833 68.8163479,32.8270833 C67.5852128,32.8270833 66.5895547,33.83042 66.5895547,35.0717932 C66.5895547,36.3106069 67.5877724,37.3165031 68.8163479,37.3165031 C70.0449234,37.3139435 71.0431411,36.3106069 71.0431411,35.0717932 Z M67.7029513,35.0717932 C67.7029513,34.4523864 68.2020601,33.950718 68.8163479,33.950718 C69.4306357,33.950718 69.9297445,34.4523864 69.9297445,35.0717932 C69.9297445,35.6912 69.4306357,36.1928684 68.8163479,36.1928684 C68.1995006,36.1928684 67.7029513,35.6912 67.7029513,35.0717932 Z M71.5985596,20.2060292 L59.9066157,20.2060292 C59.5994718,20.2060292 59.3486377,20.4568634 59.3486377,20.7665668 C59.3486377,21.0762702 59.5969123,21.3271044 59.9066157,21.3271044 L71.5985596,21.3271044 C71.8417152,21.3271044 71.9364179,21.4525215 71.8673105,21.690558 L69.2309921,30.8613624 L57.6823821,30.8613624 C57.3035713,30.8613624 56.8582127,30.5414209 56.7379147,30.1856459 L52.0846848,16.3820878 C51.984863,16.0877416 51.6700406,15.9316101 51.3782539,16.0288724 C51.0864672,16.1286941 50.9303357,16.4460762 51.0301575,16.7404224 L55.6833873,30.54654 C55.9572573,31.3579117 56.8274983,31.9849972 57.6823821,31.9849972 L70.0679592,31.9849972 L70.1831382,31.580591 L72.9346355,22.0028209 C73.211065,21.0506749 72.58142,20.2060292 71.5985596,20.2060292 Z" id="Shape"></path>
                </g>
            </g>
        </g>
    </g>
</svg>