<?xml version="1.0" encoding="UTF-8"?>
<svg width="24px" height="24px" viewBox="0 0 24 24" version="1.1" xmlns="http://www.w3.org/2000/svg" xmlns:xlink="http://www.w3.org/1999/xlink">
    <!-- Generator: Sketch 52.4 (67378) - http://www.bohemiancoding.com/sketch -->
    <title>list-icon-优惠券</title>
    <desc>Created with Sketch.</desc>
    <g id="list-icon-优惠券" stroke="none" stroke-width="1" fill="none" fill-rule="evenodd">
        <g fill-rule="nonzero">
            <rect id="Rectangle" x="0" y="0" width="24" height="24"></rect>
            <path d="M17.1,19.4 L0.9,19.4 C0.4041,19.4 -4.08562073e-14,18.9968 -4.08562073e-14,18.5 L-4.08562073e-14,15.071 L0.3177,14.873 C1.2456,14.2934 1.8,13.2944 1.8,12.2 C1.8,11.1056 1.2456,10.1066 0.3177,9.527 L-4.08562073e-14,9.329 L-4.08562073e-14,5.9 C-4.08562073e-14,5.4041 0.4041,5 0.9,5 L17.1,5 C17.5968,5 18,5.4041 18,5.9 L18,9.329 L17.6823,9.527 C16.7544,10.1066 16.2,11.1056 16.2,12.2 C16.2,13.2944 16.7544,14.2934 17.6823,14.8739 L18,15.071 L18,18.5 C18,18.9970559 17.5970559,19.4 17.1,19.4 Z M1.35,18.0500001 L16.6500002,18.0500001 L16.65,15.8009 C15.5129036,14.953972 14.8450024,13.617832 14.8500002,12.2000001 C14.8500002,10.7663001 15.5160002,9.44600014 16.6500002,8.59910014 L16.6500002,6.35000014 L1.35,6.35000014 L1.35000018,8.59910014 C2.48400018,9.44690014 3.15000018,10.7663001 3.15000018,12.2000001 C3.15000018,13.6337001 2.48400018,14.9540001 1.35000018,15.8009001 L1.35,18.0500001 Z M7.20000001,10.85 C6.70410001,10.85 6.30000001,10.4459 6.30000001,9.95 L6.30000001,8.15 C6.30000001,7.6541 6.70410001,7.25 7.20000001,7.25 C7.69590001,7.25 8.10000001,7.6541 8.10000001,8.15 L8.10000001,9.95 C8.10000001,10.4459 7.69590001,10.85 7.20000001,10.85 Z M7.24308028,9.95 L7.24308028,10.4 L7.24308028,9.95 Z M7.2,16.25 C6.7041,16.25 6.3,15.8468 6.3,15.35 L6.3,13.55 C6.32223431,13.0529445 6.74320217,12.6680258 7.2402581,12.6902586 C7.70617404,12.7111 8.07915654,13.0840817 8.09999998,13.5499977 L8.09999998,15.3499977 C8.09999998,15.8467977 7.69589998,16.2499977 7.19999998,16.2499977 Z M7.24308028,15.35 L7.24308028,15.8 L7.24308028,15.35 Z" id="Combined-Shape" fill="#0287FF"></path>
        </g>
    </g>
</svg>