<?xml version="1.0" encoding="UTF-8"?>
<svg width="24px" height="24px" viewBox="0 0 24 24" version="1.1" xmlns="http://www.w3.org/2000/svg" xmlns:xlink="http://www.w3.org/1999/xlink">
    <!-- Generator: Sketch 52.4 (67378) - http://www.bohemiancoding.com/sketch -->
    <title>list-icon-手机</title>
    <desc>Created with Sketch.</desc>
    <g id="list-icon-手机" stroke="none" stroke-width="1" fill="none" fill-rule="evenodd">
        <g fill-rule="nonzero" id="Rectangle">
            <rect x="0" y="0" width="24" height="24"></rect>
        </g>
        <g id="联系" transform="translate(2.000000, 3.000000)" fill="#F36F52">
            <path d="M3.39941087,1.68994942 C3.3398395,1.72213579 3.28225815,1.75787598 3.22697825,1.79697657 L3.22697849,1.79697639 C3.0417236,1.93185104 2.8682703,2.08222976 2.7084914,2.24649043 L2.70849087,2.24649096 C2.46744009,2.48884056 2.2422204,2.74643411 2.03421982,3.01768104 C1.85584123,3.22757318 1.6715167,3.72227646 1.66200317,4.04038494 L1.65130046,4.13016882 C1.59659769,4.7009803 1.70778701,5.42698114 2.00330087,6.26714428 C2.52654472,7.75482169 3.54805942,9.31920189 5.08389904,10.9228254 C6.66076574,12.5698543 8.23703785,13.6258556 9.77228288,14.1152075 C10.2301212,14.2608833 10.6659596,14.349478 11.0750412,14.3833699 C11.4723851,14.4262038 11.7597715,14.7830383 11.7169384,15.1803822 C11.675617,15.5636955 11.341026,15.8473007 10.9561221,15.8252635 L10.9561217,15.8252635 C10.4042704,15.7761677 9.85973256,15.6648669 9.33287654,15.4934793 C7.5586042,14.9286138 5.77898051,13.741207 4.03860011,11.9241238 C2.36362519,10.1742299 1.23270495,8.43682245 0.63870426,6.74757724 C0.274217349,5.71179225 0.135676648,4.77887225 0.207028082,4.03087138 C0.210595654,3.99400647 0.214757821,3.95951994 0.218919988,3.92979018 C0.249244347,3.31616784 0.545947395,2.53427504 0.906866734,2.11211239 L0.906866271,2.11211299 C1.147263,1.8002106 1.40701567,1.50371937 1.68459133,1.2243878 C1.90386314,1.00001548 2.14220109,0.795103078 2.39691642,0.611954722 C3.01529551,0.179089354 3.5843232,0.0571973202 4.03799941,0.326548985 C4.42805392,0.504927571 4.75151375,1.02103628 5.4644335,2.47303797 L5.64281209,2.84049786 L5.64281278,2.84049931 C5.99132366,3.56721367 6.32732017,4.29986283 6.65065179,5.03812348 C6.84330066,5.47455643 6.79157087,6.06201657 6.52519219,6.45742243 L5.69989393,7.68228872 C5.73081288,7.75364016 5.78432646,7.84818081 5.86043466,7.96115391 C6.06319165,8.2655867 6.3967596,8.66277635 6.85994933,9.13429041 C7.49557169,9.78180468 8.05508586,10.2194268 8.51887018,10.4501298 C8.61400543,10.4976974 8.69903255,10.5327785 8.77038399,10.5559677 L9.83708793,9.76812899 C10.2253587,9.50591247 10.8038999,9.44526375 11.235576,9.61948017 L11.4127654,9.68964241 L11.4127646,9.68964207 C12.0381636,9.94113729 12.6595919,10.2023932 13.2768208,10.4733187 C13.4224967,10.5381295 13.5622265,10.600562 13.6942267,10.6612108 C14.9963904,11.2564006 15.4679044,11.5376442 15.646283,11.9259149 C16.0749862,12.7416997 15.602283,13.5824574 14.3530383,14.6848371 C14.203263,14.8167973 14.0506141,14.9454594 13.8951999,15.0707295 C13.5817552,15.3186608 13.1266706,15.2655523 12.8787392,14.9521077 C12.6308078,14.6386631 12.6839164,14.1835784 12.997361,13.9356471 L12.9973614,13.9356467 C13.1325272,13.8265091 13.265351,13.7145019 13.3957402,13.5997004 C13.7132541,13.3190514 13.9843895,13.0312673 14.1621735,12.7910508 C14.2192547,12.7131588 14.2644439,12.6435912 14.2953629,12.58651 L14.2953626,12.5865099 C14.2386715,12.5514958 14.1811802,12.5177942 14.1229348,12.4854315 C13.8761778,12.3474853 13.5283395,12.1762419 13.0925012,11.9770525 L13.0924986,11.9770513 C12.3026958,11.6205338 11.5047564,11.2823262 10.6993269,10.9626978 C10.7088404,10.9668599 10.6362998,10.9745897 10.6458133,10.9674545 L9.25677555,11.9045014 C9.14134227,11.9814311 9.00657539,12.0242929 8.8679102,12.0281773 C8.6033153,12.0341232 8.26439598,11.938988 7.87493607,11.7457445 C7.25655697,11.4383387 6.57277239,10.9073651 5.8277445,10.148067 C4.58563495,8.88276818 4.07963436,7.96471306 4.27941837,7.27617172 C4.30320218,7.19411757 4.33590493,7.12157695 4.38585093,7.04427956 L5.32531148,5.64876442 L5.32531153,5.6487646 C5.30420154,5.5759997 5.27736095,5.50502119 5.24504173,5.43649594 L5.2450435,5.43649993 C4.9519842,4.77587298 4.64970311,4.11937475 4.33828569,3.46720034 C4.27882616,3.34352452 4.22174501,3.22460547 4.16585305,3.11044317 C3.97496564,2.71547018 3.77130932,2.32679625 3.55520366,1.94503634 C3.50565004,1.85858154 3.4537021,1.77352152 3.39941964,1.68995487 L3.39941087,1.68994942 Z" id="Path"></path>
        </g>
    </g>
</svg>