<?xml version="1.0" encoding="UTF-8"?>
<svg width="24px" height="24px" viewBox="0 0 24 24" version="1.1" xmlns="http://www.w3.org/2000/svg" xmlns:xlink="http://www.w3.org/1999/xlink">
    <!-- Generator: Sketch 52.4 (67378) - http://www.bohemiancoding.com/sketch -->
    <title>list-icon-意见</title>
    <desc>Created with Sketch.</desc>
    <g id="list-icon-意见" stroke="none" stroke-width="1" fill="none" fill-rule="evenodd">
        <g id="list-icon-手机" fill-rule="nonzero">
            <rect id="Rectangle" x="0" y="0" width="24" height="24"></rect>
        </g>
        <g id="意见" transform="translate(0.000000, 5.000000)" fill="#0287FF" fill-rule="nonzero">
            <path d="M1.59280317,6.5390188e-14 L15.3965207,-3.73080067e-06 C16.276246,-3.73080067e-06 16.9892617,0.713015703 16.9892617,1.59273726 L16.9892617,10.725512 C16.9892617,11.6052373 16.2762423,12.318253 15.3965207,12.318253 L12.7520421,12.318253 L10.8593448,14.210428 C10.5609727,14.5088013 10.0767807,14.5088013 9.77840745,14.210428 C9.48003417,13.912056 9.48003417,13.427864 9.77840745,13.1294907 L10.5896415,12.3182567 L8.49466007,12.3182567 L1.59280317,12.3182567 C0.713077883,12.3182567 6.21800113e-05,11.6052373 6.21800113e-05,10.7255157 L6.21800113e-05,1.59274099 C6.21800113e-05,0.713015703 0.713081614,6.5390188e-14 1.59280317,6.5390188e-14 Z M15.396517,10.7255157 L15.396517,1.59274099 L1.59280317,1.59274099 L1.59280317,10.7255157 L8.49466007,10.7255157 L12.2110474,10.7255157 L12.4913686,10.7255157 C12.4977396,10.7255157 12.5041105,10.7255157 12.5104815,10.7255157 L15.396517,10.7255157 Z M4.77826277,7.22095293 C4.19183189,7.22095293 3.71643719,6.74555814 3.71643834,6.15912726 C3.71643834,5.57269763 4.19183313,5.09730284 4.77826277,5.09730284 C5.3646924,5.09730284 5.84008719,5.57269763 5.84008719,6.15912726 C5.84008719,6.74555814 5.3646924,7.22095284 4.77826277,7.22095293 Z M8.49465012,7.22095293 C7.90821924,7.22095293 7.43282454,6.74555814 7.4328257,6.15912726 C7.4328257,5.57269763 7.90822049,5.09730284 8.49465012,5.09730284 C9.08107976,5.09730284 9.55647455,5.57269763 9.55647455,6.15912726 C9.55647455,6.74555814 9.08107976,7.22095284 8.49465012,7.22095293 Z M12.2110375,7.22095293 C11.6246066,7.22095293 11.1492119,6.74555814 11.1492131,6.15912726 C11.1492131,5.57269763 11.6246078,5.09730284 12.2110375,5.09730284 C12.7974671,5.09730284 13.2728619,5.57269763 13.2728619,6.15912726 C13.2728619,6.74555814 12.7974671,7.22095284 12.2110375,7.22095293 Z" id="Combined-Shape"></path>
        </g>
    </g>
</svg>