<?xml version="1.0" encoding="UTF-8"?>
<svg width="24px" height="24px" viewBox="0 0 24 24" version="1.1" xmlns="http://www.w3.org/2000/svg" xmlns:xlink="http://www.w3.org/1999/xlink">
    <!-- Generator: Sketch 52.4 (67378) - http://www.bohemiancoding.com/sketch -->
    <title>list-icon-须知</title>
    <desc>Created with Sketch.</desc>
    <g id="list-icon-须知" stroke="none" stroke-width="1" fill="none" fill-rule="evenodd">
        <g id="list-icon-手机" fill-rule="nonzero">
            <rect id="Rectangle" x="0" y="0" width="24" height="24"></rect>
        </g>
        <path d="M9.49997329,20.0000316 C7.6832975,20.0000316 6.01221501,19.4218024 4.63288626,18.4503871 C4.30276804,18.3626341 4.06463911,18.0666422 4.06463911,17.7070998 L4.05515963,17.6392732 C4.05515963,17.2119024 4.40473893,16.8670627 4.8273701,16.8670627 C5.0507756,16.8670627 5.25474082,16.9642952 5.39561724,17.1146707 C6.54681417,17.9547077 7.95508879,18.4551284 9.49004575,18.4551284 C13.3368719,18.4551284 16.4551077,15.3368547 16.4551077,11.4900475 C16.4551077,7.64324027 13.336853,4.51976771 9.49002684,4.51976771 C5.64321961,4.51976771 2.52020077,7.64324027 2.52020077,11.4900475 C2.52020077,12.5492344 2.76780881,13.5543521 3.19043809,14.4579297 C3.19043809,14.4579297 3.54998047,14.9725879 3.54998047,15.2979666 L3.55473955,15.3658127 C3.55473955,15.7936466 3.2098998,16.1384882 2.78252908,16.1384882 C2.43294978,16.1384882 2.1364924,15.9003593 2.04400024,15.5797202 C1.37898456,14.370641 1,12.9813227 1,11.5 C1,6.80319277 4.80319277,3 9.5,3 C14.1920809,3 18,6.80319277 18,11.5 C17.9999807,16.1968261 14.192062,20.0000189 9.49998109,20.0000189 L9.49997329,20.0000316 Z M10.3210312,15.380528 C10.3210312,15.837304 9.9467843,16.2110858 9.49001021,16.2110858 C9.02895974,16.2110858 8.65993637,15.8373229 8.65993637,15.380528 L8.65993637,15.3563457 C8.65993637,14.8948302 9.03369929,14.525769 9.49001021,14.525769 C9.95200972,14.525769 10.3210312,14.8948113 10.3210312,15.3563457 L10.3210312,15.380528 Z M9.49001021,13.0397149 C9.06312346,13.0397149 8.74246545,12.6943911 8.74246545,12.2675044 L8.71779955,7.56071516 C8.71779955,7.13334444 9.06312327,6.78850469 9.49001002,6.78850469 C9.91784392,6.78850469 10.2622205,7.13334444 10.2622205,7.56071516 L10.2622205,12.2675044 C10.2622205,12.6943911 9.91786282,13.0397149 9.49001002,13.0397149 L9.49001021,13.0397149 Z" id="Shape" fill="#0287FF" fill-rule="nonzero"></path>
    </g>
</svg>