<?xml version="1.0" encoding="UTF-8"?>
<svg width="24px" height="24px" viewBox="0 0 24 24" version="1.1" xmlns="http://www.w3.org/2000/svg" xmlns:xlink="http://www.w3.org/1999/xlink">
    <!-- Generator: Sketch 52.4 (67378) - http://www.bohemiancoding.com/sketch -->
    <title>list-icon-营业点</title>
    <desc>Created with Sketch.</desc>
    <g id="list-icon-营业点" stroke="none" stroke-width="1" fill="none" fill-rule="evenodd">
        <g id="list-icon-手机" fill-rule="nonzero">
            <rect id="Rectangle" x="0" y="0" width="24" height="24"></rect>
        </g>
        <g id="酒店" transform="translate(2.000000, 4.000000)" fill="#F36F52" fill-rule="nonzero" stroke="#F36F52" stroke-width="0.4">
            <path d="M15.6958652,14.2989067 L14.9919655,14.2989067 L14.9919655,6.38860423 C14.9919655,5.81342443 14.0858319,5.80868393 14.0858319,6.39334472 L14.0858319,14.1977762 L11.0664315,14.1977762 L11.0664315,1.31785702 C11.0664315,0.608363252 10.462865,0 9.75896531,0 L2.51459926,0 C1.81069959,0 1.20713306,0.608363252 1.20713306,1.31785702 L1.20713306,14.2989067 L0.402900255,14.2989067 C0.20223398,14.2989067 0,14.5011677 0,14.7050089 C0,14.9088501 0.200666275,15.1111111 0.402900255,15.1111111 L1.20870076,15.1111111 L11.0695669,15.1111111 L15.5970997,15.1111111 C15.797766,15.1111111 16,14.9088501 16,14.7050089 C15.9968646,14.5011677 15.8965315,14.2989067 15.6958652,14.2989067 Z M2.11326671,14.2989067 L2.11326671,1.31785702 C2.11326671,1.11559599 2.31393298,0.911754796 2.51616696,0.911754796 L9.86086616,0.911754796 C10.0615324,0.911754796 10.2637664,1.11401582 10.2637664,1.31785702 L10.2637664,14.2989067 L2.11326671,14.2989067 Z M7.94826573,3.95515122 L4.42719969,3.95515122 C4.22653341,3.95515122 4.02429943,4.15741225 4.02429943,4.36125344 C4.02429943,4.56351447 4.22496571,4.76735566 4.42719969,4.76735566 L7.94826573,4.76735566 C8.148932,4.76735566 8.35116598,4.56509464 8.35116598,4.36125344 C8.35116598,4.15741225 8.148932,3.95515122 7.94826573,3.95515122 Z M7.94826573,7.09809799 L4.42719969,7.09809799 C4.22653341,7.09809799 4.02429943,7.30035902 4.02429943,7.50420022 C4.02429943,7.70646125 4.22496571,7.91030244 4.42719969,7.91030244 L7.94826573,7.91030244 C8.148932,7.91030244 8.35116598,7.70804141 8.35116598,7.50420022 C8.35116598,7.30193919 8.148932,7.09809799 7.94826573,7.09809799 Z M7.94826573,9.73539219 L4.42719969,9.73539219 C4.22653341,9.73539219 4.02429943,9.93765322 4.02429943,10.1414944 C4.02429943,10.3437554 4.12463257,10.6487272 4.42719969,10.6487272 L7.94826573,10.6487272 C8.148932,10.6487272 8.35116598,10.4464661 8.35116598,10.2426249 C8.35116598,10.0387837 8.148932,9.73539219 7.94826573,9.73539219 Z M12.6669959,5.42912847 C12.3298765,5.42912847 12.0569704,5.70420347 12.0569704,6.044002 C12.0569704,6.38380053 12.3298765,6.65887553 12.6669959,6.65887553 C13.0041152,6.65887553 13.2770214,6.38380053 13.2770214,6.044002 C13.2770214,5.70420347 12.9960886,5.42912847 12.6669959,5.42912847 Z" id="Shape"></path>
        </g>
    </g>
</svg>